<svg width="1440" height="393" viewBox="0 0 1440 393" fill="none" xmlns="http://www.w3.org/2000/svg">
<path opacity="0.05" d="M184.44 0.302186C267.974 0.302186 335.735 68.0636 335.735 151.597V380H242.856V151.597C242.856 119.469 216.569 93.1821 184.44 93.1821C152.312 93.1821 126.61 119.469 126.61 151.597V380H33.7296V151.597C33.7296 119.469 7.44287 93.1821 -24.6854 93.1821C-56.8137 93.1821 -82.5163 119.469 -82.5163 151.597V380H-175.396V151.597C-175.396 68.0636 -107.635 0.302186 -24.6854 0.302186C16.2051 0.302186 53.0066 16.6584 79.8775 42.9452C107.333 16.6584 144.134 0.302186 184.44 0.302186ZM364.829 194.24C364.829 93.7663 444.273 8.48029 545.916 8.48029H625.36C684.359 8.48029 732.844 56.9648 732.844 115.964V132.904C732.844 192.488 684.359 240.972 625.36 240.972H502.688V148.092H625.36C633.538 148.092 640.548 141.082 640.548 132.904C640.548 121.221 643.469 100.776 625.36 100.776H545.916C495.679 100.776 457.709 144.587 457.709 194.24C457.709 243.309 495.679 287.12 545.916 287.12H720.576V380H545.916C444.273 380 364.829 294.714 364.829 194.24ZM936.53 0.886328C1036.42 0.886328 1111.19 87.3406 1111.19 184.894V380H1019.48V184.894C1019.48 138.162 985.598 93.1821 936.53 93.1821C887.461 93.1821 853.58 138.162 853.58 184.894V380H761.869V184.894C761.869 87.3406 836.64 0.886328 936.53 0.886328ZM1215.26 65.1429H1313.39V158.023H1247.38L1280.68 254.408C1288.27 274.853 1297.04 288.288 1319.82 288.288H1378.23V380H1319.82C1264.91 380 1212.34 336.189 1194.81 285.368L1099.01 10.2328H1195.98L1215.26 65.1429ZM1582.09 2.05465C1688.99 2.05465 1771.94 91.4297 1771.94 197.161C1771.94 302.308 1688.99 392.267 1582.09 392.267C1475.19 392.267 1391.66 302.308 1391.66 197.161C1391.66 91.4297 1475.19 2.05465 1582.09 2.05465ZM1582.09 299.971C1638.17 299.971 1680.23 251.487 1680.23 197.161C1680.23 142.251 1638.17 93.7663 1582.09 93.7663C1526.01 93.7663 1483.37 142.251 1483.37 197.161C1483.37 251.487 1525.43 299.971 1582.09 299.971ZM1941.27 135.825L1856.57 380H1759.6L1855.4 104.865C1872.93 54.044 1925.5 10.2328 1980.41 10.2328H2038.83V101.944H1980.41C1957.63 101.944 1948.87 115.38 1941.27 135.825ZM1915.91 288.288H1974.32C1989.51 288.288 2008.79 266.675 2013.46 253.823L2068.37 107.202C2087.65 55.2123 2143.14 13.1535 2199.22 13.1535H2263.48V104.865H2199.22C2181.7 104.865 2160.08 123.558 2154.24 139.33L2099.92 285.952C2081.22 335.605 2029.23 380 1974.32 380H1915.91V288.288Z" fill="white"/>
</svg>
