<svg xmlns="http://www.w3.org/2000/svg" width="672" height="138" viewBox="0 0 672 138" fill="none">
  <g filter="url(#filter0_d_225_7)">
    <path d="M4 64.0943C4 31.6701 29.6377 4.14728 62.4389 4.14728H88.0766C107.116 4.14728 122.763 19.7938 122.763 38.8336V44.3004C122.763 63.5287 107.116 79.1753 88.0766 79.1753H48.489V49.2018H88.0766C90.7158 49.2018 92.9779 46.9396 92.9779 44.3004C92.9779 40.5302 93.9205 33.9323 88.0766 33.9323H62.4389C46.2268 33.9323 33.9735 48.0707 33.9735 64.0943C33.9735 79.9293 46.2268 94.0677 62.4389 94.0677H118.804V124.041H62.4389C29.6377 124.041 4 96.5184 4 64.0943Z" fill="white"/>
    <path d="M307.355 2.07364C341.853 2.07364 368.622 30.9161 368.622 65.0368C368.622 98.9691 341.853 128 307.355 128C272.857 128 245.9 98.9691 245.9 65.0368C245.9 30.9161 272.857 2.07364 307.355 2.07364ZM307.355 98.215C325.452 98.215 339.025 82.5685 339.025 65.0368C339.025 47.3166 325.452 31.6701 307.355 31.6701C289.258 31.6701 275.496 47.3166 275.496 65.0368C275.496 82.5685 289.069 98.215 307.355 98.215Z" fill="white"/>
    <path d="M378.08 4.71282H434.822C466.115 4.71282 491.564 31.4816 491.564 64.4713C491.564 97.2725 466.115 124.041 434.822 124.041H378.08V4.71282ZM408.053 94.0677H434.822C449.714 94.0677 461.779 80.8719 461.779 64.4713C461.779 48.0707 449.714 34.6863 434.822 34.6863H408.053V94.0677Z" fill="white"/>
    <path d="M579.766 79.3638C576.561 79.3638 573.922 82.1915 573.922 85.3962C573.922 89.3549 574.299 94.0677 579.766 94.0677H621.616V124.041H579.766C560.161 124.041 543.948 107.829 543.948 88.2239V85.3962C543.948 65.6024 560.161 49.3903 579.766 49.3903H614.075C611.624 41.8498 608.985 34.6863 599.937 34.6863H554.128V4.71282H599.937C618.034 4.71282 635 19.2283 640.844 35.8174L671.76 124.041H640.09L624.443 79.3638H579.766Z" fill="white"/>
    <path d="M186.987 31.8586C199.429 14.5155 220.353 4.90133 241.655 4.90133V34.6863C225.255 34.6863 206.215 46.1856 206.215 64.4713C206.215 82.757 225.255 94.0677 241.655 94.0677V124.041C220.353 124.041 199.429 114.427 186.987 97.084C174.356 114.427 153.432 124.041 132.13 124.041V94.0677C148.719 94.0677 167.758 82.757 167.758 64.4713C167.758 46.1856 148.719 34.6863 132.13 34.6863V4.90133C153.432 4.90133 174.356 14.5155 186.987 31.8586Z" fill="white"/>
    <path fill-rule="evenodd" clip-rule="evenodd" d="M502.94 44.6775V123.853H532.725V44.6775H502.94Z" fill="white"/>
    <path d="M536.872 19.0398C536.872 29.5965 528.389 38.0795 517.832 38.0795C507.275 38.0795 498.792 29.5965 498.792 19.0398C498.792 8.48306 507.275 0 517.832 0C528.389 0 536.872 8.48306 536.872 19.0398Z" fill="white"/>
  </g>
  <defs>
    <filter id="filter0_d_225_7" x="0" y="0" width="671.76" height="138" filterUnits="userSpaceOnUse" color-interpolation-filters="sRGB">
      <feFlood flood-opacity="0" result="BackgroundImageFix"/>
      <feColorMatrix in="SourceAlpha" type="matrix" values="0 0 0 0 0 0 0 0 0 0 0 0 0 0 0 0 0 0 127 0" result="hardAlpha"/>
      <feOffset dx="-4" dy="10"/>
      <feComposite in2="hardAlpha" operator="out"/>
      <feColorMatrix type="matrix" values="0 0 0 0 0.576471 0 0 0 0 0.160784 0 0 0 0 0.996078 0 0 0 1 0"/>
      <feBlend mode="normal" in2="BackgroundImageFix" result="effect1_dropShadow_225_7"/>
      <feBlend mode="normal" in="SourceGraphic" in2="effect1_dropShadow_225_7" result="shape"/>
    </filter>
  </defs>
</svg>