<svg width="4461" height="2089" viewBox="0 0 4461 2089" fill="none" xmlns="http://www.w3.org/2000/svg">
<path opacity="0.05" d="M1234.9 408.685H711.136C512.954 408.685 376.114 592.712 376.114 781.457V790.894H1072.11V1166.02H376.114V1527H0.982844V781.457C0.982844 385.092 305.334 33.5544 711.136 33.5544H1234.9V408.685ZM1801.71 967.843C1761.6 967.843 1728.57 1003.23 1728.57 1043.34C1728.57 1092.89 1733.29 1151.87 1801.71 1151.87H2325.48V1527H1801.71C1556.34 1527 1353.44 1324.1 1353.44 1078.73V1043.34C1353.44 795.613 1556.34 592.712 1801.71 592.712H2231.11C2200.43 498.339 2167.4 408.685 2054.16 408.685H1480.84V33.5544H2054.16C2280.65 33.5544 2492.99 215.221 2566.13 422.841L2953.06 1527H2556.69L2360.87 967.843H1801.71ZM3693.92 0.523988C4125.67 0.523988 4460.69 363.858 4460.69 788.535C4460.69 1144.79 4224.76 1463.3 3880.3 1552.95C3851.99 1871.46 3651.45 2088.52 3321.15 2088.52V1718.1C3439.11 1718.1 3488.66 1666.2 3505.17 1552.95C3160.71 1463.3 2924.78 1144.79 2924.78 788.535C2924.78 363.858 3262.16 0.523988 3693.92 0.523988ZM3693.92 1206.13C3920.41 1206.13 4090.28 1010.31 4090.28 788.535C4090.28 569.119 3920.41 373.296 3693.92 373.296C3467.42 373.296 3295.19 569.119 3295.19 788.535C3295.19 1010.31 3467.42 1206.13 3693.92 1206.13Z" fill="white"/>
</svg>
