<svg xmlns="http://www.w3.org/2000/svg" width="57" height="57" viewBox="0 0 57 57" fill="none">
  <path fill-rule="evenodd" clip-rule="evenodd" d="M56.41 22.7027L26.4566 36.532C24.0166 37.5364 21.3962 37.0132 19.4323 35.5253L31.0175 30.5825C35.4691 28.75 37.6214 23.5858 35.7708 19.0901L35.2446 17.8119C33.4121 13.3603 28.2479 11.2079 23.7963 13.0404L17.802 15.508C11.2544 18.2033 7.85851 25.0865 8.94733 31.7598L0.800599 35.2356C0.277311 33.0761 0 30.8204 0 28.5C0 12.7599 12.7599 0 28.5 0C42.2537 0 53.7318 9.74243 56.41 22.7027ZM56.9075 30.8129L29.3414 43.54C22.9867 46.1559 15.9632 43.8802 11.9669 38.7104L3.55704 42.2984C8.41734 51.0655 17.7656 57 28.5 57C43.4615 57 55.7303 45.4713 56.9075 30.8129ZM28.1326 23.5745L16.343 28.6045C16.5538 25.9736 18.0767 23.5389 20.6687 22.4719L26.663 20.0044C28.0293 19.4419 30.1491 19.5757 30.3994 21.0725C30.6169 22.3729 28.7497 23.3205 28.1326 23.5745Z" fill="white"/>
</svg>