<svg width="10541" height="1553" viewBox="0 0 10541 1553" fill="none" xmlns="http://www.w3.org/2000/svg">
<path opacity="0.05" d="M1005.46 1048.11C1036.13 1121.25 1076.24 1177.87 1161.17 1177.87H1397.1V1553H1161.17C934.678 1553 719.98 1373.69 649.201 1166.07L476.971 680.054H941.756C1005.46 680.054 1045.57 613.993 1045.57 557.37C1045.57 500.746 1005.46 434.685 941.756 434.685H375.521V1553H0.389707V59.5544H941.756C1213.08 59.5544 1418.34 290.767 1418.34 557.37C1418.34 798.02 1248.47 1015.08 1005.46 1048.11ZM1512.38 802.738C1512.38 396.936 1833.24 52.4764 2243.77 52.4764H2564.63C2802.92 52.4764 2998.75 248.299 2998.75 486.59V555.01C2998.75 795.66 2802.92 991.483 2564.63 991.483H2069.18V616.352H2564.63C2597.66 616.352 2625.97 588.041 2625.97 555.01C2625.97 507.824 2637.77 425.248 2564.63 425.248H2243.77C2040.86 425.248 1887.51 602.197 1887.51 802.738C1887.51 1000.92 2040.86 1177.87 2243.77 1177.87H2949.2V1553H2243.77C1833.24 1553 1512.38 1208.54 1512.38 802.738ZM3826.13 59.5544H4536.28V434.685H3826.13C3627.95 434.685 3491.1 618.712 3491.1 807.457C3491.1 996.202 3627.95 1177.87 3826.13 1177.87H4163.51V993.843H3814.33V618.712H4536.28V1553H3826.13C3420.33 1553 3115.97 1201.46 3115.97 807.457C3115.97 411.092 3420.33 59.5544 3826.13 59.5544ZM5103.33 238.862C5103.33 370.984 4997.16 477.153 4865.04 477.153C4732.91 477.153 4626.75 370.984 4626.75 238.862C4626.75 106.741 4732.91 0.571449 4865.04 0.571449C4997.16 0.571449 5103.33 106.741 5103.33 238.862ZM5051.42 1550.64H4678.65V559.729H5051.42V1550.64ZM5191.89 1182.59H5427.83C5489.17 1182.59 5567.02 1095.29 5585.9 1043.39L5807.67 451.2C5885.53 241.221 6109.67 71.3509 6336.16 71.3509H6595.69V441.763H6336.16C6265.38 441.763 6178.09 517.261 6154.49 580.963L5935.08 1173.15C5859.58 1373.69 5649.6 1553 5427.83 1553H5191.89V1182.59ZM7182.05 281.33H7578.41V656.461H7311.81L7446.29 1045.75C7476.96 1128.32 7512.35 1182.59 7604.37 1182.59H7840.3V1553H7604.37C7382.59 1553 7170.25 1376.05 7099.47 1170.79L6712.55 59.5544H7104.19L7182.05 281.33ZM7873.77 802.738C7873.77 396.936 8194.64 52.4764 8605.16 52.4764H8926.02C9164.31 52.4764 9360.14 248.299 9360.14 486.59V555.01C9360.14 795.66 9164.31 991.483 8926.02 991.483H8430.57V616.352H8926.02C8959.05 616.352 8987.37 588.041 8987.37 555.01C8987.37 507.824 8999.16 425.248 8926.02 425.248H8605.16C8402.26 425.248 8248.9 602.197 8248.9 802.738C8248.9 1000.92 8402.26 1177.87 8605.16 1177.87H9310.59V1553H8605.16C8194.64 1553 7873.77 1208.54 7873.77 802.738ZM10146.6 566.807L9804.5 1553H9412.85L9799.78 441.763C9870.56 236.503 10082.9 59.5544 10304.7 59.5544H10540.6V429.967H10304.7C10212.7 429.967 10177.3 484.231 10146.6 566.807Z" fill="white"/>
</svg>
