<svg width="2095" height="373" viewBox="0 0 2095 373" fill="none" xmlns="http://www.w3.org/2000/svg">
<path opacity="0.05" d="M93.4837 112.221C93.4837 124.488 94.652 139.092 111.592 139.092H241.274C302.61 139.092 352.262 189.329 352.262 250.665V258.843C352.262 320.179 302.61 370.416 241.274 370.416H28.643V277.536H241.274C251.204 277.536 259.967 269.358 259.967 258.843C259.967 246.576 258.214 231.972 241.274 231.972H111.592C50.8407 231.972 0.603762 181.735 0.603762 120.399V112.221C0.603762 50.8855 50.8407 0.648612 111.592 0.648612H324.807V93.5285H111.592C101.662 93.5285 93.4837 101.707 93.4837 112.221ZM476.81 56.1429H574.947V149.023H508.938L542.234 245.408C549.828 265.853 558.591 279.288 581.373 279.288H639.788V371H581.373C526.462 371 473.889 327.189 456.364 276.368L360.564 1.23275H457.533L476.81 56.1429ZM780.171 232.556C770.24 232.556 762.062 241.319 762.062 251.249C762.062 263.516 763.23 278.12 780.171 278.12H909.852V371H780.171C719.419 371 669.182 320.763 669.182 260.011V251.249C669.182 189.913 719.419 139.676 780.171 139.676H886.486C878.892 116.31 870.714 94.1127 842.675 94.1127H700.726V1.23275H842.675C898.753 1.23275 951.327 46.2123 969.436 97.6176L1065.24 371H967.099L918.615 232.556H780.171ZM1045.56 186.408C1045.56 84.1821 1124.42 1.23275 1221.39 1.23275H1351.07V94.1127H1221.39C1175.83 94.1127 1138.44 135.587 1138.44 186.408C1138.44 237.23 1175.83 278.12 1221.39 278.12H1351.07V371H1221.39C1124.42 371 1045.56 288.051 1045.56 186.408ZM1553.33 174.141C1552.16 179.983 1550.99 185.824 1550.99 191.666C1550.99 259.427 1669.58 278.12 1720.4 278.12V371H1710.47C1626.35 372.752 1479.73 322.516 1478.56 219.121V371H1385.68V1.23275H1478.56V129.162L1480.9 126.825L1609.99 1.23275H1726.24L1611.16 115.726C1591.88 135.003 1572.02 154.28 1553.33 174.141ZM1747.35 279.288H1805.77C1820.95 279.288 1840.23 257.675 1844.9 244.823L1899.81 98.2017C1919.09 46.2123 1974.59 4.1535 2030.66 4.1535H2094.92V95.8651H2030.66C2013.14 95.8651 1991.53 114.558 1985.68 130.33L1931.36 276.952C1912.67 326.605 1860.68 371 1805.77 371H1747.35V279.288Z" fill="white"/>
</svg>
